<svg width="63" height="63" viewBox="0 0 63 63" fill="none" xmlns="http://www.w3.org/2000/svg">
<path d="M45.2868 32.7858C44.5413 38.994 40.4752 41.4746 38.719 43.2753C36.9603 45.0813 37.2753 45.441 37.3934 48.0896C37.4131 48.4173 37.3655 48.7455 37.2536 49.0541C37.1416 49.3627 36.9676 49.6451 36.7423 49.8839C36.517 50.1227 36.2452 50.3129 35.9437 50.4427C35.6421 50.5724 35.3172 50.6391 34.9889 50.6385H28.0117C27.6836 50.6379 27.3591 50.5705 27.0579 50.4404C26.7568 50.3102 26.4853 50.1201 26.26 49.8816C26.0348 49.6431 25.8605 49.3612 25.7478 49.0531C25.6351 48.745 25.5864 48.4171 25.6045 48.0896C25.6045 45.4908 25.846 44.8871 24.2815 43.2753C22.2865 41.2803 17.593 38.4637 17.593 30.7173C17.5811 28.7932 17.9678 26.8875 18.7289 25.1202C19.49 23.353 20.609 21.7626 22.0152 20.4493C23.4215 19.1359 25.0846 18.1282 26.8997 17.4895C28.7148 16.8508 30.6425 16.5951 32.5613 16.7384C34.4801 16.8817 36.3484 17.421 38.0485 18.3222C39.7485 19.2234 41.2435 20.4671 42.439 21.9747C43.6346 23.4824 44.5049 25.2214 44.995 27.0821C45.4851 28.9428 45.5845 30.8848 45.2868 32.7858Z" stroke="white" stroke-width="1.5" stroke-linecap="round" stroke-linejoin="round"/>
<path d="M27.458 50.4941V54.4631C27.458 55.5472 28.0618 56.4371 28.8046 56.4371H34.1938C34.9419 56.4371 35.543 55.5446 35.543 54.4631V50.4941M29.453 22.8266C27.903 22.8273 26.4168 23.4435 25.321 24.5398C24.2253 25.636 23.6098 27.1225 23.6098 28.6725M50.747 31.2476H55.5613M45.9013 15.4661L49.3164 12.051M48.5263 44.6246L51.9414 48.0371M31.5005 6.23926V10.1321M13.7555 12.0484L17.147 15.4661M11.1305 48.0371L14.522 44.6246M12.254 31.2476H7.44238" stroke="#CBFF4D" stroke-width="1.5" stroke-linecap="round" stroke-linejoin="round"/>
</svg>
