<svg width="56" height="72" viewBox="0 0 56 72" fill="none" xmlns="http://www.w3.org/2000/svg">
<path d="M45.0506 23.082V17.4172L42.6041 16.701C42.4125 15.9922 42.1645 15.3075 41.8654 14.658L43.1519 12.1755L39.6478 8.16975L37.4762 9.6405C36.9087 9.2985 36.3097 9.015 35.6891 8.796L35.0625 6H30.1072L29.4807 8.79675C28.8607 9.01575 28.2617 9.29925 27.6935 9.64125L25.5219 8.1705L24.7976 9H14.8712V8.25C14.8712 7.0095 13.9881 6 12.903 6H10.2787C9.19354 6 8.31047 7.0095 8.31047 8.25V9H4.37402V52.5H34.5534V34.5H35.0625L35.6891 31.7033C36.3091 31.4842 36.9081 31.2008 37.4762 30.8587L39.6478 32.3295L43.1519 28.3237L41.8654 25.8412C42.1645 25.1925 42.4125 24.5078 42.6041 23.7983L45.0506 23.082ZM13.5591 28.5H12.2469V16.5H13.5591V28.5ZM9.62261 16.5H10.9348V28.5H9.62261V16.5ZM12.9896 30L11.5908 32.3977L10.1921 30H12.9896ZM13.5591 15H9.62261V13.5H13.5591V15ZM11.5908 35.1023L13.6916 31.5H14.8712V37.5H8.31047V31.5H9.49009L11.5908 35.1023ZM10.2787 7.5H12.903C13.2651 7.5 13.5591 7.836 13.5591 8.25V12H9.62261V8.25C9.62261 7.836 9.91654 7.5 10.2787 7.5ZM33.2413 51H5.68617V10.5H8.31047V29.4773L8.61554 30H6.99832V39H16.1834V30H14.5661L14.8712 29.4773V10.5H23.4855L22.0191 12.1762L23.3057 14.6588C23.0065 15.3075 22.7585 15.9923 22.567 16.7017L20.1198 17.418V23.0828L22.5663 23.799C22.7579 24.5077 23.0059 25.1925 23.305 25.842L22.0185 28.3245L25.5226 32.3302L27.6942 30.8595C28.2617 31.2015 28.8607 31.485 29.4813 31.704L30.1079 34.5H33.2413V51ZM41.5439 22.56L41.4442 22.9823C41.2368 23.8635 40.9331 24.7035 40.5414 25.4805L40.3498 25.86L41.5039 28.086L39.4399 30.4455L37.4926 29.1262L37.1607 29.3452C36.481 29.793 35.7462 30.1402 34.9753 30.3772L34.6059 30.4912L34.0443 33H31.1268L30.5652 30.4912L30.1958 30.3772C29.4249 30.1402 28.6901 29.793 28.0104 29.3452L27.6784 29.1262L25.7312 30.4455L23.6672 28.086L24.8212 25.86L24.6297 25.4805C24.238 24.7035 23.9342 23.8635 23.7269 22.9823L23.6272 22.56L21.4319 21.918V18.5828L23.6265 17.9408L23.7262 17.5185C23.9336 16.6372 24.2373 15.7973 24.629 15.0203L24.8206 14.6407L23.6665 12.4148L25.7305 10.0553L27.6778 11.3745L28.0097 11.1555C28.6894 10.7077 29.4242 10.3605 30.1951 10.1235L30.5645 10.0095L31.1261 7.5H34.0437L34.6053 10.0087L34.9746 10.1228C35.7455 10.3598 36.4803 10.707 37.16 11.1547L37.492 11.3737L39.4392 10.0545L41.5032 12.414L40.3492 14.64L40.5408 15.0195C40.9324 15.7965 41.2362 16.6365 41.4435 17.5177L41.5432 17.94L43.7385 18.582V21.9172L41.5439 22.56Z" fill="white"/>
<path d="M32.5848 11.25C28.2436 11.25 24.7119 15.2873 24.7119 20.25C24.7119 25.2128 28.2436 29.25 32.5848 29.25C36.926 29.25 40.4577 25.2128 40.4577 20.25C40.4577 15.2873 36.926 11.25 32.5848 11.25ZM32.5848 27.75C28.9672 27.75 26.0241 24.3855 26.0241 20.25C26.0241 16.1145 28.9672 12.75 32.5848 12.75C36.2024 12.75 39.1455 16.1145 39.1455 20.25C39.1455 24.3855 36.2024 27.75 32.5848 27.75Z" fill="white"/>
<path d="M32.5855 14.25C29.6916 14.25 27.3369 16.9418 27.3369 20.25C27.3369 23.5582 29.6916 26.25 32.5855 26.25C35.4794 26.25 37.8341 23.5582 37.8341 20.25C37.8341 16.9418 35.4794 14.25 32.5855 14.25ZM32.5855 24.75C30.4146 24.75 28.6491 22.7318 28.6491 20.25C28.6491 17.7682 30.4146 15.75 32.5855 15.75C34.7565 15.75 36.5219 17.7682 36.5219 20.25C36.5219 22.7318 34.7565 24.75 32.5855 24.75Z" fill="#CBFF4D"/>
<path d="M16.3753 39.2197L15.2554 40.5H6.99805V49.5H16.1831V41.5605L17.303 40.2802L16.3753 39.2197ZM14.8709 48H8.31019V42H13.9432L10.9345 45.4395L10.0862 44.4697L9.1585 45.5302L10.9345 47.5605L14.8709 43.0605V48Z" fill="white"/>
<path d="M31.9293 48H30.6172V49.5H31.9293V48Z" fill="white"/>
<path d="M29.3044 48H17.4951V49.5H29.3044V48Z" fill="white"/>
<path d="M31.9287 45H17.4951V46.5H31.9287V45Z" fill="white"/>
<path d="M31.9287 42H17.4951V43.5H31.9287V42Z" fill="white"/>
<path d="M29.3044 37.5H17.4951V39H29.3044V37.5Z" fill="white"/>
<path d="M29.3044 34.5H17.4951V36H29.3044V34.5Z" fill="white"/>
<path d="M22.7437 31.5H17.4951V33H22.7437V31.5Z" fill="white"/>
</svg>
