<svg width="123" height="30" viewBox="0 0 123 30" fill="none" xmlns="http://www.w3.org/2000/svg">
<path d="M41.224 15L43.328 9.16H44.656L46.824 15H46.016L44.056 9.672L44.44 9.864H43.496L43.904 9.672L42.008 15H41.224ZM42.48 13.256L42.744 12.552H45.264L45.528 13.256H42.48ZM49.352 16.664C49.1547 16.664 48.9547 16.656 48.752 16.64C48.5547 16.624 48.3653 16.6027 48.184 16.576V15.928C48.376 15.9547 48.576 15.976 48.784 15.992C48.9973 16.0133 49.1973 16.024 49.384 16.024C49.7733 16.024 50.0827 15.9707 50.312 15.864C50.5467 15.7627 50.7147 15.6 50.816 15.376C50.9227 15.1573 50.976 14.8747 50.976 14.528V13.712L51.232 13.104C51.216 13.536 51.1253 13.896 50.96 14.184C50.7947 14.4667 50.5787 14.68 50.312 14.824C50.0507 14.9627 49.76 15.032 49.44 15.032C49.1413 15.032 48.8667 14.976 48.616 14.864C48.3707 14.7467 48.1573 14.5867 47.976 14.384C47.8 14.1813 47.6613 13.9493 47.56 13.688C47.464 13.4213 47.416 13.1413 47.416 12.848V12.704C47.416 12.4053 47.4667 12.128 47.568 11.872C47.6693 11.6107 47.8107 11.384 47.992 11.192C48.1733 11 48.3893 10.8507 48.64 10.744C48.896 10.6373 49.176 10.584 49.48 10.584C49.8373 10.584 50.152 10.6613 50.424 10.816C50.696 10.9653 50.9093 11.1867 51.064 11.48C51.224 11.768 51.312 12.1227 51.328 12.544L51.104 12.552V10.728H51.712V14.496C51.712 15.008 51.632 15.4213 51.472 15.736C51.3173 16.056 51.0667 16.2907 50.72 16.44C50.3787 16.5893 49.9227 16.664 49.352 16.664ZM49.584 14.328C49.84 14.328 50.072 14.272 50.28 14.16C50.4933 14.048 50.6613 13.888 50.784 13.68C50.912 13.4667 50.976 13.2133 50.976 12.92V12.552C50.976 12.264 50.9093 12.0213 50.776 11.824C50.648 11.6267 50.48 11.4773 50.272 11.376C50.064 11.2747 49.8373 11.224 49.592 11.224C49.3147 11.224 49.0693 11.288 48.856 11.416C48.6427 11.544 48.4773 11.7253 48.36 11.96C48.2427 12.1893 48.184 12.4613 48.184 12.776C48.184 13.0907 48.2427 13.3653 48.36 13.6C48.4827 13.8347 48.648 14.016 48.856 14.144C49.0693 14.2667 49.312 14.328 49.584 14.328ZM54.9504 15.144C54.5771 15.144 54.2544 15.08 53.9824 14.952C53.7104 14.824 53.4891 14.656 53.3184 14.448C53.1478 14.2347 53.0198 13.9973 52.9344 13.736C52.8544 13.4747 52.8144 13.208 52.8144 12.936V12.792C52.8144 12.5147 52.8544 12.2453 52.9344 11.984C53.0198 11.7227 53.1478 11.488 53.3184 11.28C53.4891 11.0667 53.7051 10.8987 53.9664 10.776C54.2331 10.648 54.5451 10.584 54.9024 10.584C55.3664 10.584 55.7478 10.6853 56.0464 10.888C56.3504 11.0853 56.5744 11.3413 56.7184 11.656C56.8678 11.9707 56.9424 12.3067 56.9424 12.664V13.008H53.1504V12.432H56.3824L56.2064 12.744C56.2064 12.44 56.1584 12.1787 56.0624 11.96C55.9664 11.736 55.8224 11.5627 55.6304 11.44C55.4384 11.3173 55.1958 11.256 54.9024 11.256C54.5984 11.256 54.3451 11.3253 54.1424 11.464C53.9451 11.6027 53.7958 11.792 53.6944 12.032C53.5984 12.272 53.5504 12.5493 53.5504 12.864C53.5504 13.168 53.5984 13.4427 53.6944 13.688C53.7958 13.928 53.9504 14.12 54.1584 14.264C54.3664 14.4027 54.6304 14.472 54.9504 14.472C55.2864 14.472 55.5584 14.3973 55.7664 14.248C55.9798 14.0987 56.1078 13.9253 56.1504 13.728H56.8704C56.8118 14.0213 56.6944 14.2747 56.5184 14.488C56.3424 14.7013 56.1211 14.864 55.8544 14.976C55.5878 15.088 55.2864 15.144 54.9504 15.144ZM53.5904 10.104L54.4704 8.52H55.3344L56.1984 10.104H55.5744L54.9344 8.904H54.8704L54.2144 10.104H53.5904ZM58.0329 15V10.728H58.6409V12.56H58.5449C58.5449 12.1387 58.6009 11.784 58.7129 11.496C58.8302 11.2027 59.0062 10.9813 59.2409 10.832C59.4755 10.6773 59.7715 10.6 60.1289 10.6H60.1609C60.6995 10.6 61.0969 10.768 61.3529 11.104C61.6142 11.44 61.7449 11.9253 61.7449 12.56V15H60.9769V12.4C60.9769 12.0693 60.8835 11.8053 60.6969 11.608C60.5102 11.4053 60.2542 11.304 59.9289 11.304C59.5929 11.304 59.3209 11.408 59.1129 11.616C58.9049 11.824 58.8009 12.1013 58.8009 12.448V15H58.0329ZM64.9821 15.144C64.6141 15.144 64.2941 15.08 64.0221 14.952C63.7554 14.824 63.5341 14.6533 63.3581 14.44C63.1821 14.2213 63.0487 13.9813 62.9581 13.72C62.8727 13.4587 62.8301 13.1973 62.8301 12.936V12.792C62.8301 12.52 62.8727 12.2533 62.9581 11.992C63.0487 11.7307 63.1821 11.496 63.3581 11.288C63.5394 11.0747 63.7634 10.904 64.0301 10.776C64.2967 10.648 64.6087 10.584 64.9661 10.584C65.3234 10.584 65.6434 10.6507 65.9261 10.784C66.2141 10.9173 66.4434 11.1067 66.6141 11.352C66.7901 11.592 66.8887 11.8773 66.9101 12.208H66.1741C66.1367 11.9413 66.0141 11.72 65.8061 11.544C65.5981 11.3627 65.3181 11.272 64.9661 11.272C64.6621 11.272 64.4087 11.3413 64.2061 11.48C64.0034 11.6187 63.8514 11.808 63.7501 12.048C63.6487 12.288 63.5981 12.56 63.5981 12.864C63.5981 13.1573 63.6487 13.4267 63.7501 13.672C63.8514 13.912 64.0034 14.104 64.2061 14.248C64.4141 14.3867 64.6727 14.456 64.9821 14.456C65.2221 14.456 65.4301 14.4133 65.6061 14.328C65.7821 14.2427 65.9234 14.128 66.0301 13.984C66.1367 13.84 66.2007 13.6773 66.2221 13.496H66.9581C66.9421 13.832 66.8434 14.1227 66.6621 14.368C66.4861 14.6133 66.2514 14.8053 65.9581 14.944C65.6701 15.0773 65.3447 15.144 64.9821 15.144ZM68.2096 15V10.728H68.9776V15H68.2096ZM67.5536 11.336V10.728H68.9776V11.336H67.5536ZM68.4256 10.04C68.255 10.04 68.127 9.99467 68.0416 9.904C67.9616 9.81333 67.9216 9.69867 67.9216 9.56C67.9216 9.42133 67.9616 9.30667 68.0416 9.216C68.127 9.12533 68.255 9.08 68.4256 9.08C68.5963 9.08 68.7216 9.12533 68.8016 9.216C68.887 9.30667 68.9296 9.42133 68.9296 9.56C68.9296 9.69867 68.887 9.81333 68.8016 9.904C68.7216 9.99467 68.5963 10.04 68.4256 10.04ZM73.0466 15V13.72H72.9186V12.24C72.9186 11.9467 72.8412 11.7253 72.6866 11.576C72.5372 11.4267 72.3159 11.352 72.0226 11.352C71.8572 11.352 71.6866 11.3547 71.5106 11.36C71.3346 11.3653 71.1666 11.3707 71.0066 11.376C70.8466 11.3813 70.7079 11.3893 70.5906 11.4V10.728C70.7079 10.7173 70.8306 10.7093 70.9586 10.704C71.0919 10.6933 71.2279 10.688 71.3666 10.688C71.5052 10.6827 71.6386 10.68 71.7666 10.68C72.2039 10.68 72.5612 10.7333 72.8386 10.84C73.1159 10.9413 73.3212 11.1093 73.4546 11.344C73.5879 11.5787 73.6546 11.896 73.6546 12.296V15H73.0466ZM71.6466 15.112C71.3266 15.112 71.0492 15.0587 70.8146 14.952C70.5852 14.84 70.4066 14.68 70.2786 14.472C70.1559 14.264 70.0946 14.0133 70.0946 13.72C70.0946 13.416 70.1612 13.1627 70.2946 12.96C70.4332 12.7573 70.6332 12.6053 70.8946 12.504C71.1559 12.3973 71.4706 12.344 71.8386 12.344H72.9986V12.92H71.8066C71.4972 12.92 71.2599 12.9947 71.0946 13.144C70.9292 13.2933 70.8466 13.4853 70.8466 13.72C70.8466 13.9547 70.9292 14.144 71.0946 14.288C71.2599 14.432 71.4972 14.504 71.8066 14.504C71.9879 14.504 72.1612 14.472 72.3266 14.408C72.4919 14.3387 72.6279 14.2267 72.7346 14.072C72.8466 13.912 72.9079 13.6933 72.9186 13.416L73.1266 13.72C73.0999 14.024 73.0252 14.28 72.9026 14.488C72.7852 14.6907 72.6199 14.8453 72.4066 14.952C72.1986 15.0587 71.9452 15.112 71.6466 15.112ZM77.9644 15L76.3884 9.16H77.1964L78.5644 14.488L78.1884 14.296H79.1404L78.7244 14.488L79.8364 9.4H80.5724L79.3004 15H77.9644ZM81.4764 15L80.0764 9.4H80.8364L82.0924 14.488L81.6924 14.296H82.6524L82.2444 14.488L83.4684 9.16H84.2524L82.8204 15H81.4764ZM86.8489 15.144C86.4755 15.144 86.1529 15.08 85.8809 14.952C85.6089 14.824 85.3875 14.656 85.2169 14.448C85.0462 14.2347 84.9182 13.9973 84.8329 13.736C84.7529 13.4747 84.7129 13.208 84.7129 12.936V12.792C84.7129 12.5147 84.7529 12.2453 84.8329 11.984C84.9182 11.7227 85.0462 11.488 85.2169 11.28C85.3875 11.0667 85.6035 10.8987 85.8649 10.776C86.1315 10.648 86.4435 10.584 86.8009 10.584C87.2649 10.584 87.6462 10.6853 87.9449 10.888C88.2489 11.0853 88.4729 11.3413 88.6169 11.656C88.7662 11.9707 88.8409 12.3067 88.8409 12.664V13.008H85.0489V12.432H88.2809L88.1049 12.744C88.1049 12.44 88.0569 12.1787 87.9609 11.96C87.8649 11.736 87.7209 11.5627 87.5289 11.44C87.3369 11.3173 87.0942 11.256 86.8009 11.256C86.4969 11.256 86.2435 11.3253 86.0409 11.464C85.8435 11.6027 85.6942 11.792 85.5929 12.032C85.4969 12.272 85.4489 12.5493 85.4489 12.864C85.4489 13.168 85.4969 13.4427 85.5929 13.688C85.6942 13.928 85.8489 14.12 86.0569 14.264C86.2649 14.4027 86.5289 14.472 86.8489 14.472C87.1849 14.472 87.4569 14.3973 87.6649 14.248C87.8782 14.0987 88.0062 13.9253 88.0489 13.728H88.7689C88.7102 14.0213 88.5929 14.2747 88.4169 14.488C88.2409 14.7013 88.0195 14.864 87.7529 14.976C87.4862 15.088 87.1849 15.144 86.8489 15.144ZM92.1873 15.144C91.8353 15.144 91.5206 15.0667 91.2433 14.912C90.9713 14.7573 90.7553 14.5333 90.5953 14.24C90.4353 13.9413 90.3473 13.584 90.3313 13.168H90.5393V15H89.9313V9.16H90.6993V12L90.4273 12.584C90.4486 12.12 90.542 11.7413 90.7073 11.448C90.8726 11.1547 91.0886 10.9387 91.3553 10.8C91.6273 10.656 91.926 10.584 92.2513 10.584C92.5553 10.584 92.8326 10.6427 93.0833 10.76C93.334 10.872 93.55 11.0293 93.7313 11.232C93.9126 11.4293 94.0513 11.6613 94.1473 11.928C94.2433 12.1893 94.2913 12.472 94.2913 12.776V12.92C94.2913 13.224 94.2406 13.5093 94.1393 13.776C94.0433 14.0427 93.902 14.28 93.7153 14.488C93.5286 14.6907 93.3046 14.8507 93.0433 14.968C92.7873 15.0853 92.502 15.144 92.1873 15.144ZM92.0993 14.472C92.3873 14.472 92.638 14.4027 92.8513 14.264C93.0646 14.1253 93.23 13.936 93.3473 13.696C93.4646 13.4507 93.5233 13.168 93.5233 12.848C93.5233 12.528 93.462 12.248 93.3393 12.008C93.222 11.768 93.0566 11.584 92.8433 11.456C92.63 11.3227 92.382 11.256 92.0993 11.256C91.8433 11.256 91.606 11.3147 91.3873 11.432C91.1686 11.544 90.9926 11.7093 90.8593 11.928C90.7313 12.1413 90.6673 12.4 90.6673 12.704V13.072C90.6673 13.3653 90.734 13.616 90.8673 13.824C91.0006 14.032 91.1766 14.192 91.3953 14.304C91.614 14.416 91.8486 14.472 92.0993 14.472Z" fill="#F5F7FA"/>
<path d="M43.568 28.144C43.2 28.144 42.88 28.08 42.608 27.952C42.3413 27.824 42.12 27.6533 41.944 27.44C41.768 27.2213 41.6347 26.9813 41.544 26.72C41.4587 26.4587 41.416 26.1973 41.416 25.936V25.792C41.416 25.52 41.4587 25.2533 41.544 24.992C41.6347 24.7307 41.768 24.496 41.944 24.288C42.1253 24.0747 42.3493 23.904 42.616 23.776C42.8827 23.648 43.1947 23.584 43.552 23.584C43.9093 23.584 44.2293 23.6507 44.512 23.784C44.8 23.9173 45.0293 24.1067 45.2 24.352C45.376 24.592 45.4747 24.8773 45.496 25.208H44.76C44.7227 24.9413 44.6 24.72 44.392 24.544C44.184 24.3627 43.904 24.272 43.552 24.272C43.248 24.272 42.9947 24.3413 42.792 24.48C42.5893 24.6187 42.4373 24.808 42.336 25.048C42.2347 25.288 42.184 25.56 42.184 25.864C42.184 26.1573 42.2347 26.4267 42.336 26.672C42.4373 26.912 42.5893 27.104 42.792 27.248C43 27.3867 43.2587 27.456 43.568 27.456C43.808 27.456 44.016 27.4133 44.192 27.328C44.368 27.2427 44.5093 27.128 44.616 26.984C44.7227 26.84 44.7867 26.6773 44.808 26.496H45.544C45.528 26.832 45.4293 27.1227 45.248 27.368C45.072 27.6133 44.8373 27.8053 44.544 27.944C44.256 28.0773 43.9307 28.144 43.568 28.144ZM48.5556 28.144C48.1822 28.144 47.8542 28.08 47.5716 27.952C47.2889 27.824 47.0489 27.656 46.8516 27.448C46.6596 27.2347 46.5129 26.9973 46.4116 26.736C46.3156 26.4747 46.2676 26.208 46.2676 25.936V25.792C46.2676 25.52 46.3182 25.2533 46.4196 24.992C46.5209 24.7253 46.6702 24.488 46.8676 24.28C47.0649 24.0667 47.3049 23.8987 47.5876 23.776C47.8702 23.648 48.1929 23.584 48.5556 23.584C48.9182 23.584 49.2409 23.648 49.5236 23.776C49.8062 23.8987 50.0462 24.0667 50.2436 24.28C50.4409 24.488 50.5902 24.7253 50.6916 24.992C50.7929 25.2533 50.8436 25.52 50.8436 25.792V25.936C50.8436 26.208 50.7929 26.4747 50.6916 26.736C50.5956 26.9973 50.4489 27.2347 50.2516 27.448C50.0596 27.656 49.8222 27.824 49.5396 27.952C49.2569 28.08 48.9289 28.144 48.5556 28.144ZM48.5556 27.456C48.8756 27.456 49.1476 27.3867 49.3716 27.248C49.6009 27.104 49.7742 26.912 49.8916 26.672C50.0142 26.432 50.0756 26.1627 50.0756 25.864C50.0756 25.56 50.0142 25.288 49.8916 25.048C49.7689 24.808 49.5929 24.6187 49.3636 24.48C49.1396 24.3413 48.8702 24.272 48.5556 24.272C48.2462 24.272 47.9769 24.3413 47.7476 24.48C47.5182 24.6187 47.3422 24.808 47.2196 25.048C47.0969 25.288 47.0356 25.56 47.0356 25.864C47.0356 26.1627 47.0942 26.432 47.2116 26.672C47.3342 26.912 47.5076 27.104 47.7316 27.248C47.9609 27.3867 48.2356 27.456 48.5556 27.456ZM51.9938 28V23.728H52.6018V25.56H52.5058C52.5058 25.144 52.5591 24.792 52.6658 24.504C52.7778 24.2107 52.9431 23.9867 53.1618 23.832C53.3805 23.6773 53.6578 23.6 53.9938 23.6H54.0258C54.3618 23.6 54.6391 23.6773 54.8578 23.832C55.0818 23.9867 55.2471 24.2107 55.3538 24.504C55.4605 24.792 55.5138 25.144 55.5138 25.56H55.2898C55.2898 25.144 55.3458 24.792 55.4578 24.504C55.5698 24.2107 55.7351 23.9867 55.9538 23.832C56.1778 23.6773 56.4578 23.6 56.7938 23.6H56.8258C57.1618 23.6 57.4418 23.6773 57.6658 23.832C57.8898 23.9867 58.0551 24.2107 58.1618 24.504C58.2738 24.792 58.3298 25.144 58.3298 25.56V28H57.5618V25.392C57.5618 25.0453 57.4765 24.7787 57.3058 24.592C57.1351 24.4 56.8978 24.304 56.5938 24.304C56.2791 24.304 56.0258 24.4053 55.8338 24.608C55.6418 24.8053 55.5458 25.0827 55.5458 25.44V28H54.7778V25.392C54.7778 25.0453 54.6925 24.7787 54.5218 24.592C54.3511 24.4 54.1138 24.304 53.8098 24.304C53.4951 24.304 53.2418 24.4053 53.0498 24.608C52.8578 24.8053 52.7618 25.0827 52.7618 25.44V28H51.9938ZM61.0443 28L63.1483 22.16H64.4763L66.6443 28H65.8363L63.8763 22.672L64.2603 22.864H63.3163L63.7243 22.672L61.8283 28H61.0443ZM62.3003 26.256L62.5643 25.552H65.0843L65.3483 26.256H62.3003ZM67.6043 28V22.16H68.3723V28H67.6043ZM67.0123 22.768V22.16H68.3723V22.768H67.0123ZM71.5094 28.048C71.1894 28.048 70.912 28.0027 70.6774 27.912C70.448 27.8213 70.2694 27.6667 70.1414 27.448C70.0187 27.224 69.9574 26.9227 69.9574 26.544V22.432H70.6934V26.64C70.6934 26.8693 70.7547 27.048 70.8774 27.176C71.0054 27.2987 71.184 27.36 71.4134 27.36H72.1654V28.048H71.5094ZM69.2214 24.304V23.728H72.1654V24.304H69.2214ZM75.82 28V26.72H75.692V25.24C75.692 24.9467 75.6147 24.7253 75.46 24.576C75.3107 24.4267 75.0893 24.352 74.796 24.352C74.6307 24.352 74.46 24.3547 74.284 24.36C74.108 24.3653 73.94 24.3707 73.78 24.376C73.62 24.3813 73.4813 24.3893 73.364 24.4V23.728C73.4813 23.7173 73.604 23.7093 73.732 23.704C73.8653 23.6933 74.0013 23.688 74.14 23.688C74.2787 23.6827 74.412 23.68 74.54 23.68C74.9773 23.68 75.3347 23.7333 75.612 23.84C75.8893 23.9413 76.0947 24.1093 76.228 24.344C76.3613 24.5787 76.428 24.896 76.428 25.296V28H75.82ZM74.42 28.112C74.1 28.112 73.8227 28.0587 73.588 27.952C73.3587 27.84 73.18 27.68 73.052 27.472C72.9293 27.264 72.868 27.0133 72.868 26.72C72.868 26.416 72.9347 26.1627 73.068 25.96C73.2067 25.7573 73.4067 25.6053 73.668 25.504C73.9293 25.3973 74.244 25.344 74.612 25.344H75.772V25.92H74.58C74.2707 25.92 74.0333 25.9947 73.868 26.144C73.7027 26.2933 73.62 26.4853 73.62 26.72C73.62 26.9547 73.7027 27.144 73.868 27.288C74.0333 27.432 74.2707 27.504 74.58 27.504C74.7613 27.504 74.9347 27.472 75.1 27.408C75.2653 27.3387 75.4013 27.2267 75.508 27.072C75.62 26.912 75.6813 26.6933 75.692 26.416L75.9 26.72C75.8733 27.024 75.7987 27.28 75.676 27.488C75.5587 27.6907 75.3933 27.8453 75.18 27.952C74.972 28.0587 74.7187 28.112 74.42 28.112ZM79.7859 28V22.16H80.5699V28H79.7859ZM82.1735 28V23.728H82.7815V25.56H82.6855C82.6855 25.1387 82.7415 24.784 82.8535 24.496C82.9708 24.2027 83.1468 23.9813 83.3815 23.832C83.6162 23.6773 83.9122 23.6 84.2695 23.6H84.3015C84.8402 23.6 85.2375 23.768 85.4935 24.104C85.7548 24.44 85.8855 24.9253 85.8855 25.56V28H85.1175V25.4C85.1175 25.0693 85.0242 24.8053 84.8375 24.608C84.6508 24.4053 84.3948 24.304 84.0695 24.304C83.7335 24.304 83.4615 24.408 83.2535 24.616C83.0455 24.824 82.9415 25.1013 82.9415 25.448V28H82.1735ZM89.2587 28.144C88.8854 28.144 88.5574 28.08 88.2747 27.952C87.992 27.824 87.752 27.656 87.5547 27.448C87.3627 27.2347 87.216 26.9973 87.1147 26.736C87.0187 26.4747 86.9707 26.208 86.9707 25.936V25.792C86.9707 25.52 87.0214 25.2533 87.1227 24.992C87.224 24.7253 87.3734 24.488 87.5707 24.28C87.768 24.0667 88.008 23.8987 88.2907 23.776C88.5734 23.648 88.896 23.584 89.2587 23.584C89.6214 23.584 89.944 23.648 90.2267 23.776C90.5094 23.8987 90.7494 24.0667 90.9467 24.28C91.144 24.488 91.2934 24.7253 91.3947 24.992C91.496 25.2533 91.5467 25.52 91.5467 25.792V25.936C91.5467 26.208 91.496 26.4747 91.3947 26.736C91.2987 26.9973 91.152 27.2347 90.9547 27.448C90.7627 27.656 90.5254 27.824 90.2427 27.952C89.96 28.08 89.632 28.144 89.2587 28.144ZM89.2587 27.456C89.5787 27.456 89.8507 27.3867 90.0747 27.248C90.304 27.104 90.4774 26.912 90.5947 26.672C90.7174 26.432 90.7787 26.1627 90.7787 25.864C90.7787 25.56 90.7174 25.288 90.5947 25.048C90.472 24.808 90.296 24.6187 90.0667 24.48C89.8427 24.3413 89.5734 24.272 89.2587 24.272C88.9494 24.272 88.68 24.3413 88.4507 24.48C88.2214 24.6187 88.0454 24.808 87.9227 25.048C87.8 25.288 87.7387 25.56 87.7387 25.864C87.7387 26.1627 87.7974 26.432 87.9147 26.672C88.0374 26.912 88.2107 27.104 88.4347 27.248C88.664 27.3867 88.9387 27.456 89.2587 27.456ZM93.5308 28L92.0748 23.728H92.8748L94.2988 28H93.5308ZM93.7228 28V27.392H94.6508V28H93.7228ZM94.0908 28L95.3308 23.728H96.0828L94.8188 28H94.0908ZM99.6403 28V26.72H99.5123V25.24C99.5123 24.9467 99.435 24.7253 99.2803 24.576C99.131 24.4267 98.9096 24.352 98.6163 24.352C98.451 24.352 98.2803 24.3547 98.1043 24.36C97.9283 24.3653 97.7603 24.3707 97.6003 24.376C97.4403 24.3813 97.3016 24.3893 97.1843 24.4V23.728C97.3016 23.7173 97.4243 23.7093 97.5523 23.704C97.6856 23.6933 97.8216 23.688 97.9603 23.688C98.099 23.6827 98.2323 23.68 98.3603 23.68C98.7976 23.68 99.155 23.7333 99.4323 23.84C99.7096 23.9413 99.915 24.1093 100.048 24.344C100.182 24.5787 100.248 24.896 100.248 25.296V28H99.6403ZM98.2403 28.112C97.9203 28.112 97.643 28.0587 97.4083 27.952C97.179 27.84 97.0003 27.68 96.8723 27.472C96.7496 27.264 96.6883 27.0133 96.6883 26.72C96.6883 26.416 96.755 26.1627 96.8883 25.96C97.027 25.7573 97.227 25.6053 97.4883 25.504C97.7496 25.3973 98.0643 25.344 98.4323 25.344H99.5923V25.92H98.4003C98.091 25.92 97.8536 25.9947 97.6883 26.144C97.523 26.2933 97.4403 26.4853 97.4403 26.72C97.4403 26.9547 97.523 27.144 97.6883 27.288C97.8536 27.432 98.091 27.504 98.4003 27.504C98.5816 27.504 98.755 27.472 98.9203 27.408C99.0856 27.3387 99.2216 27.2267 99.3283 27.072C99.4403 26.912 99.5016 26.6933 99.5123 26.416L99.7203 26.72C99.6936 27.024 99.619 27.28 99.4963 27.488C99.379 27.6907 99.2136 27.8453 99.0003 27.952C98.7923 28.0587 98.539 28.112 98.2403 28.112ZM103.49 28.144C103.122 28.144 102.802 28.08 102.53 27.952C102.263 27.824 102.042 27.6533 101.866 27.44C101.69 27.2213 101.557 26.9813 101.466 26.72C101.381 26.4587 101.338 26.1973 101.338 25.936V25.792C101.338 25.52 101.381 25.2533 101.466 24.992C101.557 24.7307 101.69 24.496 101.866 24.288C102.047 24.0747 102.271 23.904 102.538 23.776C102.805 23.648 103.117 23.584 103.474 23.584C103.831 23.584 104.151 23.6507 104.434 23.784C104.722 23.9173 104.951 24.1067 105.122 24.352C105.298 24.592 105.397 24.8773 105.418 25.208H104.682C104.645 24.9413 104.522 24.72 104.314 24.544C104.106 24.3627 103.826 24.272 103.474 24.272C103.17 24.272 102.917 24.3413 102.714 24.48C102.511 24.6187 102.359 24.808 102.258 25.048C102.157 25.288 102.106 25.56 102.106 25.864C102.106 26.1573 102.157 26.4267 102.258 26.672C102.359 26.912 102.511 27.104 102.714 27.248C102.922 27.3867 103.181 27.456 103.49 27.456C103.73 27.456 103.938 27.4133 104.114 27.328C104.29 27.2427 104.431 27.128 104.538 26.984C104.645 26.84 104.709 26.6773 104.73 26.496H105.466C105.45 26.832 105.351 27.1227 105.17 27.368C104.994 27.6133 104.759 27.8053 104.466 27.944C104.178 28.0773 103.853 28.144 103.49 28.144ZM103.426 29.936C103.325 29.936 103.226 29.928 103.13 29.912C103.039 29.9013 102.957 29.8853 102.882 29.864V29.352C102.957 29.3733 103.042 29.3893 103.138 29.4C103.239 29.416 103.335 29.424 103.426 29.424C103.597 29.424 103.722 29.3947 103.802 29.336C103.882 29.2827 103.922 29.2133 103.922 29.128C103.922 29.0427 103.887 28.9733 103.818 28.92C103.754 28.872 103.645 28.848 103.49 28.848H103.186V27.92H103.65V28.68L103.322 28.384H103.45C103.754 28.384 103.999 28.4453 104.186 28.568C104.373 28.696 104.466 28.8773 104.466 29.112C104.466 29.3413 104.373 29.536 104.186 29.696C104.005 29.856 103.751 29.936 103.426 29.936ZM109.093 28V26.72H108.965V25.24C108.965 24.9467 108.888 24.7253 108.733 24.576C108.584 24.4267 108.363 24.352 108.069 24.352C107.904 24.352 107.733 24.3547 107.557 24.36C107.381 24.3653 107.213 24.3707 107.053 24.376C106.893 24.3813 106.755 24.3893 106.637 24.4V23.728C106.755 23.7173 106.877 23.7093 107.005 23.704C107.139 23.6933 107.275 23.688 107.413 23.688C107.552 23.6827 107.685 23.68 107.813 23.68C108.251 23.68 108.608 23.7333 108.885 23.84C109.163 23.9413 109.368 24.1093 109.501 24.344C109.635 24.5787 109.701 24.896 109.701 25.296V28H109.093ZM107.693 28.112C107.373 28.112 107.096 28.0587 106.861 27.952C106.632 27.84 106.453 27.68 106.325 27.472C106.203 27.264 106.141 27.0133 106.141 26.72C106.141 26.416 106.208 26.1627 106.341 25.96C106.48 25.7573 106.68 25.6053 106.941 25.504C107.203 25.3973 107.517 25.344 107.885 25.344H109.045V25.92H107.853C107.544 25.92 107.307 25.9947 107.141 26.144C106.976 26.2933 106.893 26.4853 106.893 26.72C106.893 26.9547 106.976 27.144 107.141 27.288C107.307 27.432 107.544 27.504 107.853 27.504C108.035 27.504 108.208 27.472 108.373 27.408C108.539 27.3387 108.675 27.2267 108.781 27.072C108.893 26.912 108.955 26.6933 108.965 26.416L109.173 26.72C109.147 27.024 109.072 27.28 108.949 27.488C108.832 27.6907 108.667 27.8453 108.453 27.952C108.245 28.0587 107.992 28.112 107.693 28.112ZM108.549 22.872C108.416 22.872 108.301 22.8533 108.205 22.816C108.109 22.7733 108.021 22.7253 107.941 22.672C107.861 22.6187 107.781 22.5733 107.701 22.536C107.621 22.4933 107.531 22.472 107.429 22.472C107.317 22.472 107.213 22.5013 107.117 22.56C107.027 22.6133 106.944 22.688 106.869 22.784L106.741 22.272C106.821 22.1707 106.92 22.0853 107.037 22.016C107.16 21.9467 107.299 21.912 107.453 21.912C107.587 21.912 107.701 21.9333 107.797 21.976C107.893 22.0133 107.981 22.0587 108.061 22.112C108.141 22.1653 108.221 22.2133 108.301 22.256C108.381 22.2933 108.472 22.312 108.573 22.312C108.685 22.312 108.789 22.2853 108.885 22.232C108.981 22.1733 109.067 22.096 109.141 22L109.269 22.512C109.189 22.6133 109.088 22.6987 108.965 22.768C108.843 22.8373 108.704 22.872 108.549 22.872ZM113.079 28.144C112.706 28.144 112.378 28.08 112.095 27.952C111.812 27.824 111.572 27.656 111.375 27.448C111.183 27.2347 111.036 26.9973 110.935 26.736C110.839 26.4747 110.791 26.208 110.791 25.936V25.792C110.791 25.52 110.842 25.2533 110.943 24.992C111.044 24.7253 111.194 24.488 111.391 24.28C111.588 24.0667 111.828 23.8987 112.111 23.776C112.394 23.648 112.716 23.584 113.079 23.584C113.442 23.584 113.764 23.648 114.047 23.776C114.33 23.8987 114.57 24.0667 114.767 24.28C114.964 24.488 115.114 24.7253 115.215 24.992C115.316 25.2533 115.367 25.52 115.367 25.792V25.936C115.367 26.208 115.316 26.4747 115.215 26.736C115.119 26.9973 114.972 27.2347 114.775 27.448C114.583 27.656 114.346 27.824 114.063 27.952C113.78 28.08 113.452 28.144 113.079 28.144ZM113.079 27.456C113.399 27.456 113.671 27.3867 113.895 27.248C114.124 27.104 114.298 26.912 114.415 26.672C114.538 26.432 114.599 26.1627 114.599 25.864C114.599 25.56 114.538 25.288 114.415 25.048C114.292 24.808 114.116 24.6187 113.887 24.48C113.663 24.3413 113.394 24.272 113.079 24.272C112.77 24.272 112.5 24.3413 112.271 24.48C112.042 24.6187 111.866 24.808 111.743 25.048C111.62 25.288 111.559 25.56 111.559 25.864C111.559 26.1627 111.618 26.432 111.735 26.672C111.858 26.912 112.031 27.104 112.255 27.248C112.484 27.3867 112.759 27.456 113.079 27.456Z" fill="#F5F7FA"/>
<path d="M3.19705 2.12909C1.23735 3.13826 0.440515 5.59769 1.41706 7.62287C1.8016 8.41901 2.40286 9.0308 3.10983 9.41589C3.1323 9.42819 3.15344 9.43911 3.1759 9.4514C5.07878 10.4811 6.44251 12.4434 6.68302 14.7663C6.70152 14.9384 6.69491 15.1159 6.7187 15.2907C6.7557 15.5747 6.84027 15.8096 6.96052 16.0581C7.17856 16.5088 7.47588 16.7846 7.88157 17.1274C9.38801 18.6459 10.1505 20.8678 9.79238 23.1183C9.63512 23.969 9.73555 24.8771 10.1386 25.7115C11.1151 27.7367 13.4951 28.5602 15.4548 27.551C17.4145 26.5418 18.2113 24.0824 17.2348 22.0572C16.8383 21.2365 16.212 20.6124 15.4772 20.2287C14.5734 19.7384 13.8162 19.0543 13.2361 18.2486C12.7207 17.533 13.0881 16.5566 13.9087 16.2794C15.1773 15.8506 16.5265 15.602 17.9298 15.5652C19.5235 15.5228 21.0788 15.7632 22.547 16.2411C23.3715 16.5102 23.7534 17.7569 23.246 18.4793C22.7267 19.2181 22.058 19.8586 21.2612 20.3475C20.5463 20.7708 19.9516 21.4263 19.5975 22.2675C18.724 24.3418 19.6437 26.7562 21.651 27.6589C23.6583 28.5615 25.9946 27.6111 26.8681 25.5367C27.2275 24.6819 27.283 23.7696 27.0835 22.9284C26.613 20.6998 27.2632 18.1666 28.6904 16.5702C29.1145 16.1401 29.3616 15.9148 29.5559 15.4532C29.6629 15.1992 29.7224 14.9834 29.7594 14.6734C29.7792 14.4973 29.7594 14.3211 29.7687 14.1477C29.8929 11.8152 31.1575 9.78187 33.0049 8.65253C33.026 8.63887 33.0472 8.62658 33.0696 8.61429C33.7568 8.19096 34.3263 7.54913 34.6699 6.7325C35.5434 4.65817 34.6236 2.2438 32.6164 1.34114C30.6091 0.438483 28.2728 1.38894 27.3993 3.46327C27.0425 4.30994 26.9844 5.21123 27.1773 6.04561C27.5751 7.8441 27.2169 9.63712 26.3223 11.1065C24.0455 13.4908 21.3074 13.8841 18.2959 13.9647C15.6239 14.0357 12.9202 13.8486 10.7795 12.214C10.1293 11.7183 9.6087 11.0532 9.29023 10.2858C8.81319 9.13595 8.64272 7.84819 8.86472 6.53722C9.01537 5.69465 8.91229 4.79609 8.51322 3.97127C7.53667 1.9461 5.15675 1.12265 3.19705 2.13182V2.12909Z" fill="#F5F7FA" stroke="#F5F7FA" stroke-width="1.47841"/>
</svg>
