<svg width="51" height="67" viewBox="0 0 51 67" fill="none" xmlns="http://www.w3.org/2000/svg">
<mask id="mask0_551_625" style="mask-type:luminance" maskUnits="userSpaceOnUse" x="9" y="14" width="27" height="41">
<path d="M27.213 16.5306L35.4127 14.2366L35.9761 47.1091L10.6341 54.9928L9.79417 41.2005C9.79417 41.2005 23.8897 38.8754 26.2516 38.4965C28.3086 38.1665 29.0452 36.2218 28.8456 34.1829C28.646 32.144 27.213 16.5306 27.213 16.5306Z" fill="white"/>
</mask>
<g mask="url(#mask0_551_625)">
<path d="M15.2986 31.4068L18.3646 33.9289L22.086 27.2172" stroke="black" stroke-width="2.684" stroke-linecap="round" stroke-linejoin="round"/>
</g>
<path d="M1.63993 15.7934L9.32258 5.22357L29.143 2.0447C29.8941 1.92424 30.6427 2.13175 31.2245 2.62276C31.8063 3.11312 32.1734 3.84561 32.2452 4.65971L35.7631 44.5592C35.8349 45.3733 35.6053 46.2015 35.125 46.8622C34.6448 47.5236 33.9532 47.9621 33.2021 48.0825L7.71867 52.1696C6.15495 52.4204 4.76606 51.2496 4.61662 49.5546L1.63993 15.7934Z" stroke="white" stroke-width="2.684" stroke-linecap="round" stroke-linejoin="round"/>
<mask id="mask1_551_625" style="mask-type:alpha" maskUnits="userSpaceOnUse" x="1" y="1" width="35" height="52">
<path d="M28.8292 2.09082C29.5479 1.98384 30.2672 2.19542 30.8317 2.68428C31.3956 3.17386 31.7573 3.89762 31.8334 4.69893L35.6546 44.9554C35.7306 45.7567 35.5145 46.5678 35.0579 47.2079C34.6006 47.8489 33.941 48.2657 33.2223 48.3727L8.02564 52.1231C6.53253 52.3454 5.18204 51.1863 5.02337 49.5147L1.79316 15.4841L9.26905 5.00229L28.8292 2.09082Z" fill="#FF0000" stroke="white" stroke-width="0.16775"/>
</mask>
<g mask="url(#mask1_551_625)">
<path d="M9.71716 40.9188L27.5029 17.7512L42.8477 15.2932C43.5976 15.1729 44.3449 15.3801 44.9257 15.8704C45.5066 16.3601 45.8731 17.0916 45.9448 17.9046L53.1947 67.2272C53.2663 68.0402 53.0371 68.8673 52.5576 69.5272C52.0782 70.1877 51.3876 70.6255 50.6378 70.7458L15.4618 72.9258C13.9006 73.1764 12.514 72.0071 12.3649 70.3144L9.71716 40.9188Z" stroke="white" stroke-width="2.684" stroke-linecap="round" stroke-linejoin="round"/>
</g>
<path d="M1.76651 28.7808L8.79805 27.6521C10.3514 27.4028 11.4904 25.8352 11.342 24.1511L10.6703 16.5268" stroke="black" stroke-width="2.684" stroke-miterlimit="10"/>
<path d="M9.70224 40.7631L26.23 38.1737C27.7825 37.9246 28.9209 36.3581 28.7726 34.6751L27.1503 17.4266" stroke="#CBFF4D" stroke-width="2.684" stroke-miterlimit="10"/>
</svg>
